<svg width="168" height="138" viewBox="0 0 168 138" fill="none" xmlns="http://www.w3.org/2000/svg">
<path d="M84 73C74.06 73 66 67.836 66 59V58.824C66 54.588 68.676 51.2 72.75 49C76.648 46.896 78.952 43.02 78.376 39L77.25 33L81.422 34.59C88.936 37.45 95.194 42.414 99.25 48.722C101.033 51.4622 101.988 54.6587 102 57.928V59C102 62.124 100.992 64.79 99.25 66.93" stroke="#FFFBFB" stroke-opacity="0.65" stroke-width="3" stroke-linecap="round" stroke-linejoin="round"/>
<path d="M84 73C80.686 73 78 70.134 78 66.6C78 63.8 80.032 61.558 81.82 59.504L84 57L86.18 59.504C87.968 61.56 90 63.8 90 66.6C90 70.134 87.314 73 84 73Z" stroke="#FFFBFB" stroke-opacity="0.65" stroke-width="3" stroke-linecap="round" stroke-linejoin="round"/>
<path d="M46.908 97.952H52.492V99.712H46.908V97.952ZM47.084 104H45.004V92.8H53.18V94.544H47.084V104ZM54.9995 104V95.456H56.9995V104H54.9995ZM56.0075 94.048C55.6342 94.048 55.3248 93.9307 55.0795 93.696C54.8448 93.4613 54.7275 93.1787 54.7275 92.848C54.7275 92.5067 54.8448 92.224 55.0795 92C55.3248 91.7653 55.6342 91.648 56.0075 91.648C56.3808 91.648 56.6848 91.76 56.9195 91.984C57.1648 92.1973 57.2875 92.4693 57.2875 92.8C57.2875 93.152 57.1702 93.4507 56.9355 93.696C56.7008 93.9307 56.3915 94.048 56.0075 94.048ZM59.6245 104V95.456H61.5285V97.808L61.3045 97.12C61.5605 96.544 61.9605 96.1067 62.5045 95.808C63.0592 95.5093 63.7472 95.36 64.5685 95.36V97.264C64.4832 97.2427 64.4032 97.232 64.3285 97.232C64.2538 97.2213 64.1792 97.216 64.1045 97.216C63.3472 97.216 62.7445 97.44 62.2965 97.888C61.8485 98.3253 61.6245 98.9813 61.6245 99.856V104H59.6245ZM70.203 104.112C69.2537 104.112 68.4217 103.925 67.707 103.552C67.003 103.168 66.4537 102.645 66.059 101.984C65.675 101.323 65.483 100.571 65.483 99.728C65.483 98.8747 65.6697 98.1227 66.043 97.472C66.427 96.8107 66.9497 96.2933 67.611 95.92C68.283 95.5467 69.0457 95.36 69.899 95.36C70.731 95.36 71.4723 95.5413 72.123 95.904C72.7737 96.2667 73.2857 96.7787 73.659 97.44C74.0323 98.1013 74.219 98.88 74.219 99.776C74.219 99.8613 74.2137 99.9573 74.203 100.064C74.203 100.171 74.1977 100.272 74.187 100.368H67.067V99.04H73.131L72.347 99.456C72.3577 98.9653 72.2563 98.5333 72.043 98.16C71.8297 97.7867 71.5363 97.4933 71.163 97.28C70.8003 97.0667 70.379 96.96 69.899 96.96C69.4083 96.96 68.9763 97.0667 68.603 97.28C68.2403 97.4933 67.9523 97.792 67.739 98.176C67.5363 98.5493 67.435 98.992 67.435 99.504V99.824C67.435 100.336 67.5523 100.789 67.787 101.184C68.0217 101.579 68.3523 101.883 68.779 102.096C69.2057 102.309 69.6963 102.416 70.251 102.416C70.731 102.416 71.163 102.341 71.547 102.192C71.931 102.043 72.2723 101.808 72.571 101.488L73.643 102.72C73.259 103.168 72.7737 103.515 72.187 103.76C71.611 103.995 70.9497 104.112 70.203 104.112ZM80.754 104V92.8H85.362C86.354 92.8 87.202 92.96 87.906 93.28C88.6207 93.6 89.17 94.0587 89.554 94.656C89.938 95.2533 90.13 95.9627 90.13 96.784C90.13 97.6053 89.938 98.3147 89.554 98.912C89.17 99.5093 88.6207 99.968 87.906 100.288C87.202 100.608 86.354 100.768 85.362 100.768H81.906L82.834 99.792V104H80.754ZM82.834 100.016L81.906 99.008H85.266C86.1833 99.008 86.8713 98.816 87.33 98.432C87.7993 98.0373 88.034 97.488 88.034 96.784C88.034 96.0693 87.7993 95.52 87.33 95.136C86.8713 94.752 86.1833 94.56 85.266 94.56H81.906L82.834 93.536V100.016ZM92.1714 104V92.128H94.1714V104H92.1714ZM102.06 104V102.272L101.948 101.904V98.88C101.948 98.2933 101.772 97.84 101.42 97.52C101.068 97.1893 100.535 97.024 99.8204 97.024C99.3404 97.024 98.8657 97.0987 98.3964 97.248C97.9377 97.3973 97.5484 97.6053 97.2284 97.872L96.4444 96.416C96.903 96.064 97.447 95.8027 98.0764 95.632C98.7164 95.4507 99.3777 95.36 100.06 95.36C101.298 95.36 102.252 95.6587 102.924 96.256C103.607 96.8427 103.948 97.7547 103.948 98.992V104H102.06ZM99.3724 104.112C98.7324 104.112 98.1724 104.005 97.6924 103.792C97.2124 103.568 96.839 103.264 96.5724 102.88C96.3164 102.485 96.1884 102.043 96.1884 101.552C96.1884 101.072 96.3004 100.64 96.5244 100.256C96.759 99.872 97.1377 99.568 97.6604 99.344C98.183 99.12 98.8764 99.008 99.7404 99.008H102.22V100.336H99.8844C99.2017 100.336 98.743 100.448 98.5084 100.672C98.2737 100.885 98.1564 101.152 98.1564 101.472C98.1564 101.835 98.3004 102.123 98.5884 102.336C98.8764 102.549 99.2764 102.656 99.7884 102.656C100.279 102.656 100.716 102.544 101.1 102.32C101.495 102.096 101.778 101.765 101.948 101.328L102.284 102.528C102.092 103.029 101.746 103.419 101.244 103.696C100.754 103.973 100.13 104.112 99.3724 104.112ZM110.451 104.112C109.555 104.112 108.755 103.925 108.051 103.552C107.357 103.168 106.813 102.645 106.419 101.984C106.024 101.323 105.827 100.571 105.827 99.728C105.827 98.8747 106.024 98.1227 106.419 97.472C106.813 96.8107 107.357 96.2933 108.051 95.92C108.755 95.5467 109.555 95.36 110.451 95.36C111.283 95.36 112.013 95.5307 112.643 95.872C113.283 96.2027 113.768 96.6933 114.099 97.344L112.563 98.24C112.307 97.8347 111.992 97.536 111.619 97.344C111.256 97.152 110.861 97.056 110.435 97.056C109.944 97.056 109.501 97.1627 109.107 97.376C108.712 97.5893 108.403 97.8987 108.179 98.304C107.955 98.6987 107.843 99.1733 107.843 99.728C107.843 100.283 107.955 100.763 108.179 101.168C108.403 101.563 108.712 101.867 109.107 102.08C109.501 102.293 109.944 102.4 110.435 102.4C110.861 102.4 111.256 102.304 111.619 102.112C111.992 101.92 112.307 101.621 112.563 101.216L114.099 102.112C113.768 102.752 113.283 103.248 112.643 103.6C112.013 103.941 111.283 104.112 110.451 104.112ZM119.719 104.112C118.769 104.112 117.937 103.925 117.223 103.552C116.519 103.168 115.969 102.645 115.575 101.984C115.191 101.323 114.999 100.571 114.999 99.728C114.999 98.8747 115.185 98.1227 115.559 97.472C115.943 96.8107 116.465 96.2933 117.127 95.92C117.799 95.5467 118.561 95.36 119.415 95.36C120.247 95.36 120.988 95.5413 121.639 95.904C122.289 96.2667 122.801 96.7787 123.175 97.44C123.548 98.1013 123.735 98.88 123.735 99.776C123.735 99.8613 123.729 99.9573 123.719 100.064C123.719 100.171 123.713 100.272 123.703 100.368H116.583V99.04H122.647L121.863 99.456C121.873 98.9653 121.772 98.5333 121.559 98.16C121.345 97.7867 121.052 97.4933 120.679 97.28C120.316 97.0667 119.895 96.96 119.415 96.96C118.924 96.96 118.492 97.0667 118.119 97.28C117.756 97.4933 117.468 97.792 117.255 98.176C117.052 98.5493 116.951 98.992 116.951 99.504V99.824C116.951 100.336 117.068 100.789 117.303 101.184C117.537 101.579 117.868 101.883 118.295 102.096C118.721 102.309 119.212 102.416 119.767 102.416C120.247 102.416 120.679 102.341 121.063 102.192C121.447 102.043 121.788 101.808 122.087 101.488L123.159 102.72C122.775 103.168 122.289 103.515 121.703 103.76C121.127 103.995 120.465 104.112 119.719 104.112Z" fill="#FFFBFB"/>
<rect x="1.5" y="1.5" width="165" height="135" rx="6.5" stroke="#FFFBFB" stroke-opacity="0.35" stroke-width="3"/>
</svg>
